<svg width="18" height="18" viewBox="0 0 18 18" fill="none" xmlns="http://www.w3.org/2000/svg">
<path d="M2.625 9.375V14.625C2.625 14.9744 2.625 15.1492 2.68209 15.287C2.75821 15.4708 2.90422 15.6168 3.08799 15.6929C3.22582 15.75 3.40055 15.75 3.75 15.75C4.09945 15.75 4.27418 15.75 4.41201 15.6929C4.59578 15.6168 4.74179 15.4708 4.81791 15.287C4.875 15.1492 4.875 14.9744 4.875 14.625V9.375C4.875 9.02557 4.875 8.85083 4.81791 8.71298C4.74179 8.52923 4.59578 8.3832 4.41201 8.30708C4.27418 8.25 4.09945 8.25 3.75 8.25C3.40055 8.25 3.22582 8.25 3.08799 8.30708C2.90422 8.3832 2.75821 8.52923 2.68209 8.71298C2.625 8.85083 2.625 9.02557 2.625 9.375Z" stroke="#141B34" stroke-width="1.5" stroke-linecap="square" stroke-linejoin="round"/>
<path d="M7.875 10.875V14.6246C7.875 14.9741 7.875 15.1488 7.93208 15.2867C8.0082 15.4704 8.15423 15.6164 8.33798 15.6926C8.47583 15.7496 8.65057 15.7496 9 15.7496C9.34943 15.7496 9.52417 15.7496 9.66202 15.6926C9.84577 15.6164 9.9918 15.4704 10.0679 15.2867C10.125 15.1488 10.125 14.9741 10.125 14.6246V10.875C10.125 10.5256 10.125 10.3508 10.0679 10.213C9.9918 10.0292 9.84577 9.8832 9.66202 9.80708C9.52417 9.75 9.34943 9.75 9 9.75C8.65057 9.75 8.47583 9.75 8.33798 9.80708C8.15423 9.8832 8.0082 10.0292 7.93208 10.213C7.875 10.3508 7.875 10.5256 7.875 10.875Z" stroke="#141B34" stroke-width="1.5" stroke-linecap="square" stroke-linejoin="round"/>
<path d="M13.125 7.875V14.625C13.125 14.9744 13.125 15.1492 13.1821 15.287C13.2582 15.4708 13.4042 15.6168 13.588 15.6929C13.7258 15.75 13.9006 15.75 14.25 15.75C14.5994 15.75 14.7742 15.75 14.912 15.6929C15.0958 15.6168 15.2418 15.4708 15.3179 15.287C15.375 15.1492 15.375 14.9744 15.375 14.625V7.875C15.375 7.52557 15.375 7.35082 15.3179 7.21299C15.2418 7.02922 15.0958 6.88321 14.912 6.80709C14.7742 6.75 14.5994 6.75 14.25 6.75C13.9006 6.75 13.7258 6.75 13.588 6.80709C13.4042 6.88321 13.2582 7.02922 13.1821 7.21299C13.125 7.35082 13.125 7.52557 13.125 7.875Z" stroke="#141B34" stroke-width="1.5" stroke-linecap="square" stroke-linejoin="round"/>
<path d="M4.875 4.875C4.875 5.49632 4.37132 6 3.75 6C3.12868 6 2.625 5.49632 2.625 4.875C2.625 4.25368 3.12868 3.75 3.75 3.75C4.37132 3.75 4.875 4.25368 4.875 4.875Z" stroke="#141B34" stroke-width="1.5"/>
<path d="M15.375 3.375C15.375 3.99632 14.8713 4.5 14.25 4.5C13.6287 4.5 13.125 3.99632 13.125 3.375C13.125 2.75368 13.6287 2.25 14.25 2.25C14.8713 2.25 15.375 2.75368 15.375 3.375Z" stroke="#141B34" stroke-width="1.5"/>
<path d="M10.125 6.375C10.125 6.99632 9.6213 7.5 9 7.5C8.3787 7.5 7.875 6.99632 7.875 6.375C7.875 5.75368 8.3787 5.25 9 5.25C9.6213 5.25 10.125 5.75368 10.125 6.375Z" stroke="#141B34" stroke-width="1.5"/>
<path d="M4.83252 5.18399L7.9185 6.06572M9.97747 5.8166L13.2736 3.93311" stroke="#141B34" stroke-width="1.5"/>
</svg>
