<svg width="18" height="18" viewBox="0 0 18 18" fill="none" xmlns="http://www.w3.org/2000/svg">
<path d="M12.75 8.85337C12.75 8.5941 12.75 8.4645 12.789 8.349C12.9024 8.0133 13.2014 7.8831 13.5008 7.74668C13.8375 7.5933 14.0058 7.51665 14.1726 7.50315C14.362 7.48783 14.5517 7.52865 14.7135 7.61947C14.9281 7.73985 15.0777 7.96867 15.2309 8.15475C15.9385 9.0141 16.2922 9.44385 16.4216 9.9177C16.5261 10.3001 16.5261 10.6999 16.4216 11.0823C16.2329 11.7734 15.6364 12.3528 15.1948 12.8891C14.969 13.1633 14.8561 13.3005 14.7135 13.3805C14.5517 13.4714 14.362 13.5122 14.1726 13.4969C14.0058 13.4834 13.8375 13.4067 13.5008 13.2533C13.2014 13.1169 12.9024 12.9867 12.789 12.651C12.75 12.5355 12.75 12.4059 12.75 12.1466V8.85337Z" stroke="#141B34" stroke-width="1.5"/>
<path d="M5.25 8.85343C5.25 8.52703 5.24084 8.23363 4.97693 8.00413C4.88095 7.92065 4.75369 7.86268 4.49918 7.74673C4.16251 7.59343 3.99417 7.51678 3.82737 7.50328C3.32693 7.46278 3.05769 7.80433 2.7691 8.15488C2.06156 9.01423 1.7078 9.4439 1.57835 9.91775C1.47388 10.3002 1.47388 10.7001 1.57835 11.0824C1.76715 11.7736 2.36364 12.3529 2.80516 12.8892C3.08347 13.2272 3.34933 13.5356 3.82737 13.497C3.99417 13.4835 4.16251 13.4068 4.49918 13.2535C4.75369 13.1375 4.88095 13.0795 4.97693 12.9961C5.24084 12.7666 5.25 12.4732 5.25 12.1468V8.85343Z" stroke="#141B34" stroke-width="1.5"/>
<path d="M15 7.875V6.75C15 3.85051 12.3137 1.5 9 1.5C5.68629 1.5 3 3.85051 3 6.75V7.875" stroke="#141B34" stroke-width="1.5" stroke-linecap="round" stroke-linejoin="round"/>
<path d="M15 13.125C15 16.5 12 16.5 9 16.5" stroke="#141B34" stroke-width="1.5" stroke-linecap="round" stroke-linejoin="round"/>
</svg>
