<svg width="42" height="42" viewBox="0 0 42 42" fill="none" xmlns="http://www.w3.org/2000/svg">
<rect x="1" y="1" width="40" height="40" rx="5" fill="#FFEF46"/>
<rect x="1" y="1" width="40" height="40" rx="5" stroke="#EEDA0F" stroke-width="2"/>
<path d="M21.0875 21.993L22.8106 20.3283L26.0231 21.3797C28.1259 22.0807 29.1774 23.3657 29.1774 25.1764C29.1774 26.5491 28.6517 27.4545 27.6003 28.6227L27.2791 28.9732L27.3959 28.1554C27.8631 25.1764 26.987 23.8914 24.0956 22.9567L21.0875 21.993ZM16.765 11.8002L25.5267 14.7208L23.6283 16.5316L19.0723 15.0129C17.4952 14.4872 16.9695 13.6402 16.765 11.8587V11.8002ZM16.2393 26.6367L18.2253 24.7383L21.9637 25.965C23.9204 26.6075 24.5921 27.4545 24.3877 29.5865L16.2393 26.6367ZM13.7276 18.167C13.7276 17.6122 14.0197 17.0865 14.5162 16.6483C15.0419 17.4077 15.9473 18.0794 17.3783 18.5468L20.4742 19.5689L18.751 21.2337L15.7136 20.2406C14.3117 19.7734 13.7276 19.0724 13.7276 18.167ZM22.8982 33.5C29.3234 29.236 32.7697 26.3446 32.7697 22.7816C32.7697 20.4159 31.3678 19.1016 28.272 18.0794L25.9356 17.2908L32.3317 11.1577L31.0465 9.78506L29.1482 11.4498L20.1821 8.5C17.4075 9.40538 13.9029 12.0631 13.9029 14.7208C13.9029 15.0128 13.9321 15.3049 14.0197 15.6262C11.7124 16.9404 10.7779 18.167 10.7779 19.6857C10.7779 21.1168 11.5372 22.5479 13.9613 23.3365L15.8888 23.979L9.22998 30.3749L10.515 31.7477L12.5886 29.8493L22.8982 33.5Z" fill="#02050A"/>
</svg>
