<svg width="22" height="22" viewBox="0 0 22 22" fill="none" xmlns="http://www.w3.org/2000/svg">
<rect width="22" height="22" rx="11" fill="#CCF888"/>
<path d="M6.46967 14.4697C6.17678 14.7626 6.17678 15.2374 6.46967 15.5303C6.76256 15.8232 7.23744 15.8232 7.53033 15.5303L6.46967 14.4697ZM15.75 7C15.75 6.58579 15.4142 6.25 15 6.25L8.25 6.25C7.83579 6.25 7.5 6.58579 7.5 7C7.5 7.41421 7.83579 7.75 8.25 7.75H14.25V13.75C14.25 14.1642 14.5858 14.5 15 14.5C15.4142 14.5 15.75 14.1642 15.75 13.75L15.75 7ZM7 15L7.53033 15.5303L15.5303 7.53033L15 7L14.4697 6.46967L6.46967 14.4697L7 15Z" fill="#182122"/>
</svg>
