<svg width="21" height="21" viewBox="0 0 21 21" fill="none" xmlns="http://www.w3.org/2000/svg">
<path fill-rule="evenodd" clip-rule="evenodd" d="M9.26494 0C6.80772 0 4.45115 0.976124 2.71364 2.71364C0.976124 4.45115 0 6.80772 0 9.26494C0 11.7222 0.976124 14.0787 2.71364 15.8162C4.45115 17.5537 6.80772 18.5299 9.26494 18.5299C11.3758 18.5299 13.4125 17.8095 15.0462 16.5049L19.239 20.6977C19.6419 21.1006 20.295 21.1006 20.6978 20.6977C21.1006 20.2949 21.1006 19.6418 20.6978 19.239L16.5049 15.0461C17.8095 13.4124 18.5299 11.3758 18.5299 9.26494C18.5299 6.80772 17.5537 4.45115 15.8162 2.71364C14.0787 0.976124 11.7221 0 9.26494 0ZM14.3668 14.3481C15.7116 12.9984 16.4669 11.1706 16.4669 9.26494C16.4669 7.35487 15.7081 5.52303 14.3575 4.1724C13.0068 2.82178 11.175 2.06301 9.26494 2.06301C7.35487 2.06301 5.52303 2.82178 4.1724 4.1724C2.82178 5.52303 2.06301 7.35487 2.06301 9.26494C2.06301 11.175 2.82178 13.0068 4.1724 14.3575C5.52303 15.7081 7.35487 16.4669 9.26494 16.4669C11.1706 16.4669 12.9984 15.7116 14.3482 14.3668C14.3512 14.3636 14.3543 14.3605 14.3574 14.3574C14.3605 14.3543 14.3637 14.3512 14.3668 14.3481Z" fill="#182122"/>
</svg>
