<svg width="18" height="18" viewBox="0 0 18 18" fill="none" xmlns="http://www.w3.org/2000/svg">
<path d="M6.73762 1.5C4.63267 1.54796 3.40319 1.74833 2.56314 2.58547C1.82792 3.31813 1.58216 4.34808 1.5 6M11.2624 1.5C13.3673 1.54796 14.5968 1.74833 15.4369 2.58547C16.1721 3.31813 16.4179 4.34808 16.5 6M11.2624 16.5C13.3673 16.4521 14.5968 16.2517 15.4369 15.4145C16.1721 14.6819 16.4179 13.652 16.5 12M6.73762 16.5C4.63267 16.4521 3.40319 16.2517 2.56314 15.4145C1.82792 14.6819 1.58216 13.652 1.5 12" stroke="#182122" stroke-width="1.5" stroke-linecap="round" stroke-linejoin="round"/>
<path d="M11.25 11.25L12.75 12.75M12 8.62502C12 6.76102 10.489 5.25 8.625 5.25C6.76102 5.25 5.25 6.76102 5.25 8.62502C5.25 10.489 6.76102 12 8.625 12C10.489 12 12 10.489 12 8.62502Z" stroke="#182122" stroke-width="1.5" stroke-linecap="round" stroke-linejoin="round"/>
</svg>
