<svg width="18" height="18" viewBox="0 0 18 18" fill="none" xmlns="http://www.w3.org/2000/svg">
<path d="M11.625 9C11.625 10.4497 10.4497 11.625 9 11.625C7.55025 11.625 6.375 10.4497 6.375 9C6.375 7.55025 7.55025 6.375 9 6.375C10.4497 6.375 11.625 7.55025 11.625 9Z" stroke="#141B34" stroke-width="1.5"/>
<path d="M15.7582 10.5724C16.1497 10.4668 16.3454 10.414 16.4227 10.3131C16.5 10.2122 16.5 10.0498 16.5 9.72516V8.27489C16.5 7.95021 16.5 7.78784 16.4227 7.68696C16.3454 7.58601 16.1497 7.53321 15.7582 7.42767C14.2954 7.03318 13.3799 5.50387 13.7575 4.05064C13.8613 3.65098 13.9132 3.45116 13.8636 3.33396C13.814 3.21675 13.6718 3.13599 13.3873 2.97446L12.0938 2.24004C11.8146 2.08153 11.675 2.00228 11.5498 2.01915C11.4245 2.03603 11.2832 2.17704 11.0004 2.45904C9.906 3.55085 8.0952 3.5508 7.00076 2.45897C6.71807 2.17696 6.57673 2.03596 6.45145 2.01908C6.32617 2.0022 6.18658 2.08146 5.9074 2.23996L4.61388 2.97439C4.3294 3.13591 4.18715 3.21667 4.13758 3.33385C4.08801 3.45104 4.1399 3.65089 4.24369 4.05059C4.62103 5.50386 3.70479 7.03321 2.24177 7.42769C1.85034 7.53321 1.65463 7.58601 1.57731 7.68689C1.5 7.78784 1.5 7.95021 1.5 8.27489V9.72516C1.5 10.0498 1.5 10.2122 1.57731 10.3131C1.65461 10.414 1.85033 10.4668 2.24177 10.5724C3.70455 10.9669 4.62006 12.4962 4.24254 13.9494C4.13872 14.3491 4.0868 14.5489 4.13637 14.6661C4.18595 14.7833 4.32819 14.8641 4.61269 15.0256L5.90621 15.76C6.18541 15.9185 6.325 15.9978 6.4503 15.9809C6.57559 15.964 6.71691 15.823 6.99953 15.541C8.09453 14.4483 9.9066 14.4482 11.0017 15.5409C11.2843 15.823 11.4256 15.964 11.5509 15.9808C11.6762 15.9977 11.8158 15.9184 12.095 15.76L13.3885 15.0255C13.673 14.864 13.8153 14.7832 13.8648 14.666C13.9144 14.5488 13.8625 14.349 13.7586 13.9493C13.3809 12.4962 14.2957 10.9669 15.7582 10.5724Z" stroke="#141B34" stroke-width="1.5" stroke-linecap="round"/>
</svg>
