<svg width="33" height="33" viewBox="0 0 33 33" fill="none" xmlns="http://www.w3.org/2000/svg">
<rect width="32.9969" height="33" rx="16.0104" fill="#CCF888"/>
<path d="M20.3304 8.54765C20.1377 8.35391 19.876 8.24464 19.6027 8.24387C19.3295 8.2431 19.0671 8.35088 18.8733 8.54352C18.771 8.64766 18.6919 8.77236 18.6414 8.90935C17.7841 10.6983 16.8402 11.7071 15.6489 12.3027C14.3124 12.9622 12.778 13.4208 10.3048 13.4208C10.1015 13.4223 9.9031 13.4833 9.73407 13.5963C9.56504 13.7093 9.43281 13.8693 9.3537 14.0566C9.27569 14.245 9.25529 14.4522 9.2951 14.6522C9.3349 14.8521 9.43312 15.0357 9.57731 15.1798L12.9192 18.5217L8.24387 24.7561L14.4783 20.0808L17.8191 23.4216C17.9153 23.5176 18.0294 23.5936 18.1551 23.6453C18.2822 23.6982 18.4134 23.725 18.5487 23.7256C18.7517 23.7267 18.8166 23.6978 18.9423 23.6453C19.1305 23.5675 19.2913 23.4358 19.4047 23.2667C19.518 23.0976 19.5787 22.8987 19.5792 22.6952C19.5792 20.222 20.0367 18.6876 20.6952 17.3717C21.2898 16.1804 22.2986 15.2365 24.0886 14.3792C24.2252 14.3285 24.3495 14.2495 24.4534 14.1473C24.646 13.9535 24.7538 13.6911 24.753 13.4179C24.7523 13.1446 24.643 12.8829 24.4493 12.6902L20.3304 8.54765Z" fill="#182122"/>
</svg>
