<svg width="47" height="39" viewBox="0 0 47 39" fill="none" xmlns="http://www.w3.org/2000/svg">
<path d="M12.7539 8.29908C13.8883 7.1987 15.1533 6.22764 16.5287 5.41378C20.1163 3.29111 24.2738 2.33031 28.429 2.66445C32.5841 2.99872 36.5344 4.61159 39.7367 7.28039C42.9388 9.94926 45.2363 13.5443 46.3139 17.5711C47.3913 21.5979 47.196 25.8596 45.7548 29.7709L12.7539 8.29908ZM-5.77097e-05 1.31699e-05L12.7539 8.29908C12.0556 8.97646 11.4064 9.70255 10.8128 10.4734L-5.77097e-05 1.31699e-05ZM13.4697 38.4881C10.4588 35.605 7.79158 30.7454 6.99376 26.6538C6.19605 22.5623 6.68398 18.3244 8.39115 14.5215C9.04092 13.0741 9.85571 11.7166 10.8128 10.4734L39.7366 38.4881L13.4697 38.4881Z" fill="#CCF888"/>
</svg>
