<svg width="553" height="157" viewBox="0 0 553 157" fill="none" xmlns="http://www.w3.org/2000/svg">
<path d="M1.02093 155.577L27.0711 131.445C31.7595 127.102 38.6826 126.2 44.3268 129.198L67.3475 141.425C77.5722 146.856 89.8382 139.167 89.4062 127.598L88.3459 99.1996C88.0094 90.1858 95.6364 82.9098 104.624 83.6702L131.351 85.9313C140.129 86.674 147.66 79.738 147.64 70.9281L147.594 50.8786C147.572 41.3146 156.374 34.1656 165.731 36.1482L190.987 41.5002C197.399 42.8591 203.953 39.9032 207.178 34.1969L212.257 25.2127C217.422 16.0774 230.123 14.9172 236.857 22.9658L245.462 33.2517C250.451 39.2147 259.166 40.3859 265.552 35.9515L284.101 23.0716C292.029 17.5672 303.016 20.8587 306.611 29.8151L320.941 65.5166C325.78 77.5713 342.603 78.2182 348.353 66.5706L360.025 42.9267C364.519 33.8241 376.823 32.2136 383.508 39.853V39.853C389.983 47.2523 401.831 46.0176 406.641 37.4423L414.311 23.7698C419.206 15.0427 431.105 13.4511 438.122 20.5849L451.231 33.9117C456.717 39.4887 465.564 39.9223 471.569 34.9084L507.396 4.99386C513.777 -0.334509 523.273 0.53315 528.583 6.92982L551.844 34.9509" stroke="#534FFF" stroke-width="3"/>
</svg>
