<svg width="71" height="77" viewBox="0 0 71 77" fill="none" xmlns="http://www.w3.org/2000/svg">
<path d="M51.2639 22.0203C50.7118 21.8871 50.1294 21.9765 49.6427 22.2692L4.90955 49.3016C4.72719 49.4103 4.58138 49.5709 4.49074 49.7629C4.4001 49.9549 4.36875 50.1695 4.40071 50.3794C4.43266 50.5892 4.52645 50.7848 4.67011 50.9411C4.81377 51.0974 5.00077 51.2074 5.20721 51.2569L19.3822 54.7554C19.6554 54.8232 19.9394 54.8362 20.2177 54.7934C20.496 54.7507 20.763 54.6532 21.0034 54.5066L65.7365 27.4742C65.9189 27.3655 66.0647 27.2049 66.1553 27.0129C66.246 26.8209 66.2773 26.6063 66.2454 26.3964C66.2134 26.1865 66.1196 25.991 65.976 25.8346C65.8323 25.6783 65.6453 25.5684 65.4389 25.5189L51.2639 22.0203ZM1.61688 43.8529L46.35 16.8205C46.5916 16.6759 46.8021 16.4848 46.9693 16.2583C47.1366 16.0318 47.2572 15.7744 47.3242 15.501L50.8099 1.32998C50.8621 1.1242 50.8517 0.907528 50.7802 0.707665C50.7086 0.507802 50.579 0.33381 50.4081 0.207931C50.2372 0.0820489 50.0326 0.00999088 49.8205 0.000965943C49.6084 -0.00805901 49.3984 0.0463556 49.2174 0.157256L4.4926 27.1846C4.01181 27.4845 3.66342 27.9564 3.5184 28.5041L0.0327126 42.6751C-0.0192498 42.8801 -0.00917382 43.0959 0.0616618 43.2951C0.132497 43.4944 0.260903 43.6681 0.430595 43.7942C0.600288 43.9204 0.803625 43.9933 1.01482 44.0038C1.22602 44.0142 1.43556 43.9617 1.61688 43.8529ZM69.1647 33.1471L24.4315 60.1795C24.19 60.3241 23.9795 60.5152 23.8122 60.7417C23.645 60.9682 23.5244 61.2256 23.4573 61.4991L19.9717 75.67C19.9195 75.8758 19.9299 76.0925 20.0014 76.2923C20.073 76.4922 20.2025 76.6662 20.3735 76.7921C20.5444 76.918 20.749 76.99 20.9611 76.999C21.1732 77.0081 21.3832 76.9537 21.5642 76.8427L66.2974 49.8103C66.7829 49.5156 67.1329 49.0415 67.2716 48.4908L70.7489 34.3249C70.8008 34.1199 70.7908 33.9041 70.7199 33.7049C70.6491 33.5057 70.5207 33.3319 70.351 33.2058C70.1813 33.0796 69.978 33.0067 69.7668 32.9962C69.5556 32.9858 69.346 33.0383 69.1647 33.1471Z" fill="#182122"/>
</svg>
