<svg width="55" height="59" viewBox="0 0 55 59" fill="none" xmlns="http://www.w3.org/2000/svg">
<path d="M27.7048 31.526L31.7309 27.6366L39.2369 30.093C44.15 31.7309 46.6067 34.7333 46.6067 38.964C46.6067 42.1714 45.3783 44.2867 42.9219 47.0163L42.1713 47.8351L42.4442 45.9243C43.5358 38.964 41.4889 35.9617 34.7333 33.7778L27.7048 31.526ZM17.6054 7.71095L38.077 14.5348L33.6413 18.7656L22.9963 15.2171C19.3115 13.9889 18.0831 12.0099 17.6054 7.84742V7.71095ZM16.377 42.376L21.0173 37.9403L29.7519 40.8066C34.3237 42.3078 35.8931 44.2867 35.4157 49.2681L16.377 42.376ZM10.5087 22.5868C10.5087 21.2905 11.191 20.0621 12.3511 19.0384C13.5794 20.8127 15.6948 22.3821 19.0384 23.4741L26.2718 25.8623L22.2457 29.752L15.1489 27.4317C11.8734 26.34 10.5087 24.7021 10.5087 22.5868ZM31.9355 58.4119C46.9478 48.4493 55 41.6936 55 33.3685C55 27.8412 51.7245 24.7703 44.4913 22.3821L39.0322 20.5396L53.9765 6.20969L50.9739 3.0025L46.5385 6.89205L25.5894 0C19.1066 2.1154 10.9181 8.32507 10.9181 14.5347C10.9181 15.2171 10.9863 15.8995 11.1911 16.6502C5.80023 19.7208 3.61662 22.5868 3.61662 26.1351C3.61662 29.4788 5.3908 32.8226 11.0546 34.6651L15.5583 36.1663L0 51.1103L3.00247 54.3176L7.84739 49.8822L31.9355 58.4119Z" fill="#02050A"/>
</svg>
