<svg width="16" height="16" viewBox="0 0 16 16" fill="none" xmlns="http://www.w3.org/2000/svg">
<path fill-rule="evenodd" clip-rule="evenodd" d="M8 16C12.4356 16 16 12.4356 16 8C16 3.56444 12.4356 0 8 0C3.56444 0 0 3.56444 0 8C0 12.4356 3.56444 16 8 16ZM10.2 9.264C10.2 8.09956 9.50044 7.69956 8.10044 7.53422C7.10044 7.39911 6.90044 7.13422 6.90044 6.66489C6.90044 6.2 7.23556 5.90044 7.90044 5.90044C8.50044 5.90044 8.83556 6.09956 9 6.6C9.03556 6.69956 9.13511 6.76444 9.23556 6.76444H9.76533C9.79603 6.76541 9.82661 6.76014 9.85523 6.74897C9.88384 6.7378 9.90989 6.72095 9.93182 6.69944C9.95375 6.67793 9.97109 6.6522 9.98281 6.6238C9.99453 6.59541 10.0004 6.56494 10 6.53422V6.49956C9.86489 5.76444 9.26489 5.06489 8.50044 5V4.26489C8.50044 4.12978 8.4 4.02933 8.23556 4H7.79556C7.66044 4 7.53511 4.09956 7.50044 4.26489V5C6.50044 5.13422 5.83556 5.89956 5.83556 6.73422C5.83556 7.83467 6.50044 8.26489 7.90044 8.43467C8.83556 8.59911 9.136 8.79911 9.136 9.33422C9.136 9.86489 8.66489 10.2347 8.03556 10.2347C7.16444 10.2347 6.86578 9.86489 6.76533 9.36444C6.73511 9.23467 6.63556 9.16444 6.53511 9.16444H5.96533C5.93462 9.16407 5.90415 9.16992 5.87575 9.18163C5.84736 9.19335 5.82163 9.2107 5.80012 9.23262C5.77861 9.25455 5.76176 9.2806 5.75059 9.30922C5.73941 9.33783 5.73415 9.36841 5.73511 9.39911V9.43467C5.86489 10.2649 6.4 10.8347 7.50044 10.9991V11.7396C7.50044 11.8747 7.6 11.9644 7.76533 12H8.24533C8.37511 12 8.46578 11.9093 8.50044 11.7396V10.9991C9.50044 10.8347 10.2 10.1644 10.2 9.264ZM4.63378 11.7556C5.11746 12.1983 5.68386 12.5412 6.30044 12.7644C6.4 12.8347 6.50044 12.9644 6.50044 13.0649V13.5342C6.50044 13.5991 6.50044 13.6347 6.46489 13.664C6.43556 13.7991 6.30044 13.864 6.16533 13.7991C4.95256 13.4124 3.89416 12.6501 3.14311 11.6224C2.39207 10.5947 1.98729 9.3547 1.98729 8.08178C1.98729 6.80885 2.39207 5.56891 3.14311 4.54116C3.89416 3.51341 4.95256 2.75111 6.16533 2.36444C6.20089 2.33422 6.26489 2.33422 6.30044 2.33422C6.43556 2.36444 6.50044 2.46489 6.50044 2.59911V3.06489C6.50044 3.23378 6.43556 3.33422 6.30044 3.39911C5.61869 3.6452 4.99953 4.03849 4.48701 4.55101C3.97449 5.06353 3.5812 5.68269 3.33511 6.36444C2.99114 7.29028 2.93088 8.29763 3.16203 9.25787C3.39319 10.2181 3.90527 11.0877 4.63289 11.7556M9.53422 2.49956C9.56444 2.36444 9.69956 2.29956 9.83467 2.36444C10.7513 2.662 11.5835 3.17441 12.2618 3.85894C12.9402 4.54347 13.445 5.38027 13.7342 6.29956C14.7342 9.464 12.9991 12.8347 9.83467 13.8347C9.79911 13.864 9.73422 13.864 9.69956 13.864C9.56444 13.8347 9.49956 13.7342 9.49956 13.5991V13.1342C9.49956 12.9644 9.56444 12.8649 9.69956 12.7991C10.3811 12.553 11 12.1598 11.5123 11.6474C12.0247 11.1351 12.4179 10.5162 12.664 9.83467C12.8927 9.22004 12.9974 8.56618 12.972 7.91086C12.9466 7.25555 12.7916 6.61176 12.516 6.01669C12.2403 5.42161 11.8495 4.88705 11.3661 4.44387C10.8827 4.0007 10.3163 3.65769 9.69956 3.43467C9.59911 3.36444 9.49956 3.23467 9.49956 3.09956V2.63467C9.49956 2.56444 9.49956 2.53422 9.53511 2.49956" fill="#2775CA"/>
</svg>
