<svg width="15" height="17" viewBox="0 0 15 17" fill="none" xmlns="http://www.w3.org/2000/svg">
<path d="M7.3961 16.2273C7.62726 16.2273 7.84219 16.1181 8.27193 15.8996L11.7265 14.144C13.2551 13.3672 14.0195 12.9787 14.0195 12.3636V4.63636M7.3961 16.2273C7.16495 16.2273 6.95002 16.1181 6.52027 15.8996L3.06571 14.144C1.53705 13.3672 0.772727 12.9787 0.772727 12.3636V4.63636M7.3961 16.2273V8.5M14.0195 4.63636C14.0195 4.02125 13.2551 3.63282 11.7265 2.85596L8.27193 1.10035C7.84219 0.881936 7.62726 0.772727 7.3961 0.772727C7.16495 0.772727 6.95002 0.881936 6.52027 1.10035L3.06571 2.85596C1.53705 3.63282 0.772727 4.02125 0.772727 4.63636M14.0195 4.63636C14.0195 5.25148 13.2551 5.6399 11.7265 6.41673L8.27193 8.17236C7.84219 8.39082 7.62726 8.5 7.3961 8.5M0.772727 4.63636C0.772727 5.25148 1.53705 5.6399 3.06571 6.41673L6.52027 8.17236C6.95002 8.39082 7.16495 8.5 7.3961 8.5" stroke="white" stroke-width="1.5" stroke-linejoin="round"/>
</svg>
