<svg width="18" height="18" viewBox="0 0 18 18" fill="none" xmlns="http://www.w3.org/2000/svg">
<path d="M11.25 11.25C11.25 11.8713 11.7537 12.375 12.375 12.375C12.9963 12.375 13.5 11.8713 13.5 11.25C13.5 10.6287 12.9963 10.125 12.375 10.125C11.7537 10.125 11.25 10.6287 11.25 11.25Z" stroke="#182122" stroke-width="1.5"/>
<path d="M11.2529 5.85192C7.18214 5.56985 3.82853 4.96581 2.25 4.49982V11.2959C2.25 12.7917 2.25 13.5396 2.71469 14.1496C3.17937 14.7595 3.81692 14.9318 5.09203 15.2764C7.15217 15.833 9.31763 16.1645 11.258 16.3541C13.2689 16.5506 14.2744 16.6489 15.0122 15.9746C15.75 15.3004 15.75 14.2173 15.75 12.051V10.5408C15.75 8.43712 15.75 7.38529 15.1447 6.73248C14.5394 6.07966 13.4439 6.00375 11.2529 5.85192Z" stroke="#182122" stroke-width="1.5" stroke-linecap="round" stroke-linejoin="round"/>
<path d="M13.2193 6C13.5026 4.93255 13.759 2.99116 12.9952 2.02719C12.5112 1.4162 11.7917 1.4749 11.0864 1.53694C7.37843 1.86304 4.75908 2.52548 3.29476 2.97553C2.66511 3.16905 2.25 3.78391 2.25 4.47033" stroke="#182122" stroke-width="1.5" stroke-linejoin="round"/>
</svg>
